# Blender v2.92.0 OBJ File: ''
# www.blender.org
mtllib square_tissue_722_hole_vertical.mtl
o Grid
v 0.526316 0.000000 0.000000
v 0.000000 0.526316 0.000000
v 0.000000 0.000000 0.000000
v 1.052632 0.000000 0.000000
v 0.526316 0.526316 0.000000
v 1.578947 0.000000 0.000000
v 1.052632 0.526316 0.000000
v 2.105263 0.000000 0.000000
v 1.578947 0.526316 0.000000
v 2.631579 0.000000 0.000000
v 2.105263 0.526316 0.000000
v 3.157895 0.000000 0.000000
v 2.631579 0.526316 0.000000
v 3.684211 0.000000 0.000000
v 3.157895 0.526316 0.000000
v 4.210526 0.000000 0.000000
v 3.684211 0.526316 0.000000
v 4.736842 0.000000 0.000000
v 4.210526 0.526316 0.000000
v 5.263158 0.000000 0.000000
v 4.736842 0.526316 0.000000
v 5.789474 0.000000 0.000000
v 5.263158 0.526316 0.000000
v 6.315789 0.000000 0.000000
v 5.789474 0.526316 0.000000
v 6.842105 0.000000 0.000000
v 6.315789 0.526316 0.000000
v 7.368421 0.000000 0.000000
v 6.842105 0.526316 0.000000
v 7.894737 0.000000 0.000000
v 7.368421 0.526316 0.000000
v 8.421053 0.000000 0.000000
v 7.894737 0.526316 0.000000
v 8.947368 0.000000 0.000000
v 8.421053 0.526316 0.000000
v 9.473684 0.000000 0.000000
v 8.947368 0.526316 0.000000
v 10.000000 0.000000 0.000000
v 9.473684 0.526316 0.000000
v 0.000000 1.052632 0.000000
v 0.526316 1.052632 0.000000
v 1.052632 1.052632 0.000000
v 1.578947 1.052632 0.000000
v 2.105263 1.052632 0.000000
v 2.631579 1.052632 0.000000
v 3.157895 1.052632 0.000000
v 3.684211 1.052632 0.000000
v 4.210526 1.052632 0.000000
v 4.736842 1.052632 0.000000
v 5.263158 1.052632 0.000000
v 5.789474 1.052632 0.000000
v 6.315789 1.052632 0.000000
v 6.842105 1.052632 0.000000
v 7.368421 1.052632 0.000000
v 7.894737 1.052632 0.000000
v 8.421053 1.052632 0.000000
v 8.947368 1.052632 0.000000
v 10.000000 0.526316 0.000000
v 9.473684 1.052632 0.000000
v 0.000000 1.578947 0.000000
v 0.526316 1.578947 0.000000
v 1.052632 1.578947 0.000000
v 1.578947 1.578947 0.000000
v 2.105263 1.578947 0.000000
v 2.631579 1.578947 0.000000
v 3.157895 1.578947 0.000000
v 3.684211 1.578947 0.000000
v 4.210526 1.578947 0.000000
v 5.789474 1.578947 0.000000
v 6.315789 1.578947 0.000000
v 6.842105 1.578947 0.000000
v 7.368421 1.578947 0.000000
v 7.894737 1.578947 0.000000
v 8.421053 1.578947 0.000000
v 8.947368 1.578947 0.000000
v 10.000000 1.052632 0.000000
v 9.473684 1.578947 0.000000
v 0.000000 2.105263 0.000000
v 0.526316 2.105263 0.000000
v 1.052632 2.105263 0.000000
v 1.578947 2.105263 0.000000
v 2.105263 2.105263 0.000000
v 2.631579 2.105263 0.000000
v 3.157895 2.105263 0.000000
v 3.684211 2.105263 0.000000
v 4.210526 2.105263 0.000000
v 5.789474 2.105263 0.000000
v 6.315789 2.105263 0.000000
v 6.842105 2.105263 0.000000
v 7.368421 2.105263 0.000000
v 7.894737 2.105263 0.000000
v 8.421053 2.105263 0.000000
v 8.947368 2.105263 0.000000
v 10.000000 1.578947 0.000000
v 9.473684 2.105263 0.000000
v 0.000000 2.631579 0.000000
v 0.526316 2.631579 0.000000
v 1.052632 2.631579 0.000000
v 1.578947 2.631579 0.000000
v 2.105263 2.631579 0.000000
v 2.631579 2.631579 0.000000
v 3.157895 2.631579 0.000000
v 3.684211 2.631579 0.000000
v 4.210526 2.631579 0.000000
v 5.789474 2.631579 0.000000
v 6.315789 2.631579 0.000000
v 6.842105 2.631579 0.000000
v 7.368421 2.631579 0.000000
v 7.894737 2.631579 0.000000
v 8.421053 2.631579 0.000000
v 8.947368 2.631579 0.000000
v 10.000000 2.105263 0.000000
v 9.473684 2.631579 0.000000
v 0.000000 3.157895 0.000001
v 0.526316 3.157895 0.000001
v 1.052632 3.157895 0.000001
v 1.578947 3.157895 0.000001
v 2.105263 3.157895 0.000001
v 2.631579 3.157895 0.000001
v 3.157895 3.157895 0.000001
v 3.684211 3.157895 0.000001
v 4.210526 3.157895 0.000001
v 5.789474 3.157895 0.000001
v 6.315789 3.157895 0.000001
v 6.842105 3.157895 0.000001
v 7.368421 3.157895 0.000001
v 7.894737 3.157895 0.000001
v 8.421053 3.157895 0.000001
v 8.947368 3.157895 0.000001
v 10.000000 2.631579 0.000000
v 9.473684 3.157895 0.000001
v 0.000000 3.684211 0.000001
v 0.526316 3.684211 0.000001
v 1.052632 3.684211 0.000001
v 1.578947 3.684211 0.000001
v 2.105263 3.684211 0.000001
v 2.631579 3.684211 0.000001
v 3.157895 3.684211 0.000001
v 3.684211 3.684211 0.000001
v 4.210526 3.684211 0.000001
v 5.789474 3.684211 0.000001
v 6.315789 3.684211 0.000001
v 6.842105 3.684211 0.000001
v 7.368421 3.684211 0.000001
v 7.894737 3.684211 0.000001
v 8.421053 3.684211 0.000001
v 8.947368 3.684211 0.000001
v 10.000000 3.157895 0.000001
v 9.473684 3.684211 0.000001
v 0.000000 4.210526 0.000001
v 0.526316 4.210526 0.000001
v 1.052632 4.210526 0.000001
v 1.578947 4.210526 0.000001
v 2.105263 4.210526 0.000001
v 2.631579 4.210526 0.000001
v 3.157895 4.210526 0.000001
v 3.684211 4.210526 0.000001
v 4.210526 4.210526 0.000001
v 5.789474 4.210526 0.000001
v 6.315789 4.210526 0.000001
v 6.842105 4.210526 0.000001
v 7.368421 4.210526 0.000001
v 7.894737 4.210526 0.000001
v 8.421053 4.210526 0.000001
v 8.947368 4.210526 0.000001
v 10.000000 3.684211 0.000001
v 9.473684 4.210526 0.000001
v 0.000000 4.736842 0.000001
v 0.526316 4.736842 0.000001
v 1.052632 4.736842 0.000001
v 1.578947 4.736842 0.000001
v 2.105263 4.736842 0.000001
v 2.631579 4.736842 0.000001
v 3.157895 4.736842 0.000001
v 3.684211 4.736842 0.000001
v 4.210526 4.736842 0.000001
v 5.789474 4.736842 0.000001
v 6.315789 4.736842 0.000001
v 6.842105 4.736842 0.000001
v 7.368421 4.736842 0.000001
v 7.894737 4.736842 0.000001
v 8.421053 4.736842 0.000001
v 8.947368 4.736842 0.000001
v 10.000000 4.210526 0.000001
v 9.473684 4.736842 0.000001
v 0.000000 5.263158 0.000001
v 0.526316 5.263158 0.000001
v 1.052632 5.263158 0.000001
v 1.578947 5.263158 0.000001
v 2.105263 5.263158 0.000001
v 2.631579 5.263158 0.000001
v 3.157895 5.263158 0.000001
v 3.684211 5.263158 0.000001
v 4.210526 5.263158 0.000001
v 5.789474 5.263158 0.000001
v 6.315789 5.263158 0.000001
v 6.842105 5.263158 0.000001
v 7.368421 5.263158 0.000001
v 7.894737 5.263158 0.000001
v 8.421053 5.263158 0.000001
v 8.947368 5.263158 0.000001
v 10.000000 4.736842 0.000001
v 9.473684 5.263158 0.000001
v 0.000000 5.789474 0.000001
v 0.526316 5.789474 0.000001
v 1.052632 5.789474 0.000001
v 1.578947 5.789474 0.000001
v 2.105263 5.789474 0.000001
v 2.631579 5.789474 0.000001
v 3.157895 5.789474 0.000001
v 3.684211 5.789474 0.000001
v 4.210526 5.789474 0.000001
v 5.789474 5.789474 0.000001
v 6.315789 5.789474 0.000001
v 6.842105 5.789474 0.000001
v 7.368421 5.789474 0.000001
v 7.894737 5.789474 0.000001
v 8.421053 5.789474 0.000001
v 8.947368 5.789474 0.000001
v 10.000000 5.263158 0.000001
v 9.473684 5.789474 0.000001
v 0.000000 6.315789 0.000001
v 0.526316 6.315789 0.000001
v 1.052632 6.315789 0.000001
v 1.578947 6.315789 0.000001
v 2.105263 6.315789 0.000001
v 2.631579 6.315789 0.000001
v 3.157895 6.315789 0.000001
v 3.684211 6.315789 0.000001
v 4.210526 6.315789 0.000001
v 5.789474 6.315789 0.000001
v 6.315789 6.315789 0.000001
v 6.842105 6.315789 0.000001
v 7.368421 6.315789 0.000001
v 7.894737 6.315789 0.000001
v 8.421053 6.315789 0.000001
v 8.947368 6.315789 0.000001
v 10.000000 5.789474 0.000001
v 9.473684 6.315789 0.000001
v 0.000000 6.842105 0.000001
v 0.526316 6.842105 0.000001
v 1.052632 6.842105 0.000001
v 1.578947 6.842105 0.000001
v 2.105263 6.842105 0.000001
v 2.631579 6.842105 0.000001
v 3.157895 6.842105 0.000001
v 3.684211 6.842105 0.000001
v 4.210526 6.842105 0.000001
v 5.789474 6.842105 0.000001
v 6.315789 6.842105 0.000001
v 6.842105 6.842105 0.000001
v 7.368421 6.842105 0.000001
v 7.894737 6.842105 0.000001
v 8.421053 6.842105 0.000001
v 8.947368 6.842105 0.000001
v 10.000000 6.315789 0.000001
v 9.473684 6.842105 0.000001
v 0.000000 7.368421 0.000001
v 0.526316 7.368421 0.000001
v 1.052632 7.368421 0.000001
v 1.578947 7.368421 0.000001
v 2.105263 7.368421 0.000001
v 2.631579 7.368421 0.000001
v 3.157895 7.368421 0.000001
v 3.684211 7.368421 0.000001
v 4.210526 7.368421 0.000001
v 5.789474 7.368421 0.000001
v 6.315789 7.368421 0.000001
v 6.842105 7.368421 0.000001
v 7.368421 7.368421 0.000001
v 7.894737 7.368421 0.000001
v 8.421053 7.368421 0.000001
v 8.947368 7.368421 0.000001
v 10.000000 6.842105 0.000001
v 9.473684 7.368421 0.000001
v 0.000000 7.894737 0.000001
v 0.526316 7.894737 0.000001
v 1.052632 7.894737 0.000001
v 1.578947 7.894737 0.000001
v 2.105263 7.894737 0.000001
v 2.631579 7.894737 0.000001
v 3.157895 7.894737 0.000001
v 3.684211 7.894737 0.000001
v 4.210526 7.894737 0.000001
v 5.789474 7.894737 0.000001
v 6.315789 7.894737 0.000001
v 6.842105 7.894737 0.000001
v 7.368421 7.894737 0.000001
v 7.894737 7.894737 0.000001
v 8.421053 7.894737 0.000001
v 8.947368 7.894737 0.000001
v 10.000000 7.368421 0.000001
v 9.473684 7.894737 0.000001
v 0.000000 8.421053 0.000001
v 0.526316 8.421053 0.000001
v 1.052632 8.421053 0.000001
v 1.578947 8.421053 0.000001
v 2.105263 8.421053 0.000001
v 2.631579 8.421053 0.000001
v 3.157895 8.421053 0.000001
v 3.684211 8.421053 0.000001
v 4.210526 8.421053 0.000001
v 5.789474 8.421053 0.000001
v 6.315789 8.421053 0.000001
v 6.842105 8.421053 0.000001
v 7.368421 8.421053 0.000001
v 7.894737 8.421053 0.000001
v 8.421053 8.421053 0.000001
v 8.947368 8.421053 0.000001
v 10.000000 7.894737 0.000001
v 9.473684 8.421053 0.000001
v 0.000000 8.947369 0.000001
v 0.526316 8.947369 0.000001
v 1.052632 8.947369 0.000001
v 1.578947 8.947369 0.000001
v 2.105263 8.947369 0.000001
v 2.631579 8.947369 0.000001
v 3.157895 8.947369 0.000001
v 3.684211 8.947369 0.000001
v 4.210526 8.947369 0.000001
v 4.736842 8.947369 0.000001
v 5.263158 8.947369 0.000001
v 5.789474 8.947369 0.000001
v 6.315789 8.947369 0.000001
v 6.842105 8.947369 0.000001
v 7.368421 8.947369 0.000001
v 7.894737 8.947369 0.000001
v 8.421053 8.947369 0.000001
v 8.947368 8.947369 0.000001
v 10.000000 8.421053 0.000001
v 9.473684 8.947369 0.000001
v 0.000000 9.473684 0.000002
v 0.526316 9.473684 0.000002
v 1.052632 9.473684 0.000002
v 1.578947 9.473684 0.000002
v 2.105263 9.473684 0.000002
v 2.631579 9.473684 0.000002
v 3.157895 9.473684 0.000002
v 3.684211 9.473684 0.000002
v 4.210526 9.473684 0.000002
v 4.736842 9.473684 0.000002
v 5.263158 9.473684 0.000002
v 5.789474 9.473684 0.000002
v 6.315789 9.473684 0.000002
v 6.842105 9.473684 0.000002
v 7.368421 9.473684 0.000002
v 7.894737 9.473684 0.000002
v 8.421053 9.473684 0.000002
v 8.947368 9.473684 0.000002
v 10.000000 8.947369 0.000001
v 9.473684 9.473684 0.000002
v 0.000000 10.000000 0.000002
v 0.526316 10.000000 0.000002
v 1.052632 10.000000 0.000002
v 1.578947 10.000000 0.000002
v 2.105263 10.000000 0.000002
v 2.631579 10.000000 0.000002
v 3.157895 10.000000 0.000002
v 3.684211 10.000000 0.000002
v 4.210526 10.000000 0.000002
v 4.736842 10.000000 0.000002
v 5.263158 10.000000 0.000002
v 5.789474 10.000000 0.000002
v 6.315789 10.000000 0.000002
v 6.842105 10.000000 0.000002
v 7.368421 10.000000 0.000002
v 7.894737 10.000000 0.000002
v 8.421053 10.000000 0.000002
v 8.947368 10.000000 0.000002
v 10.000000 9.473684 0.000002
v 9.473684 10.000000 0.000002
v 10.000000 10.000000 0.000002
vn 0.0000 -0.0000 1.0000
usemtl None
s 1
f 1//1 2//1 3//1
f 4//1 5//1 1//1
f 6//1 7//1 4//1
f 8//1 9//1 6//1
f 10//1 11//1 8//1
f 12//1 13//1 10//1
f 14//1 15//1 12//1
f 16//1 17//1 14//1
f 18//1 19//1 16//1
f 20//1 21//1 18//1
f 22//1 23//1 20//1
f 24//1 25//1 22//1
f 26//1 27//1 24//1
f 28//1 29//1 26//1
f 30//1 31//1 28//1
f 32//1 33//1 30//1
f 34//1 35//1 32//1
f 36//1 37//1 34//1
f 38//1 39//1 36//1
f 5//1 40//1 2//1
f 7//1 41//1 5//1
f 9//1 42//1 7//1
f 11//1 43//1 9//1
f 13//1 44//1 11//1
f 15//1 45//1 13//1
f 17//1 46//1 15//1
f 19//1 47//1 17//1
f 21//1 48//1 19//1
f 23//1 49//1 21//1
f 25//1 50//1 23//1
f 27//1 51//1 25//1
f 29//1 52//1 27//1
f 31//1 53//1 29//1
f 33//1 54//1 31//1
f 35//1 55//1 33//1
f 37//1 56//1 35//1
f 39//1 57//1 37//1
f 58//1 59//1 39//1
f 41//1 60//1 40//1
f 42//1 61//1 41//1
f 43//1 62//1 42//1
f 44//1 63//1 43//1
f 45//1 64//1 44//1
f 46//1 65//1 45//1
f 47//1 66//1 46//1
f 48//1 67//1 47//1
f 52//1 69//1 51//1
f 53//1 70//1 52//1
f 54//1 71//1 53//1
f 55//1 72//1 54//1
f 56//1 73//1 55//1
f 57//1 74//1 56//1
f 59//1 75//1 57//1
f 76//1 77//1 59//1
f 61//1 78//1 60//1
f 62//1 79//1 61//1
f 63//1 80//1 62//1
f 64//1 81//1 63//1
f 65//1 82//1 64//1
f 66//1 83//1 65//1
f 67//1 84//1 66//1
f 68//1 85//1 67//1
f 70//1 87//1 69//1
f 71//1 88//1 70//1
f 72//1 89//1 71//1
f 73//1 90//1 72//1
f 74//1 91//1 73//1
f 75//1 92//1 74//1
f 77//1 93//1 75//1
f 94//1 95//1 77//1
f 79//1 96//1 78//1
f 80//1 97//1 79//1
f 81//1 98//1 80//1
f 82//1 99//1 81//1
f 83//1 100//1 82//1
f 84//1 101//1 83//1
f 85//1 102//1 84//1
f 86//1 103//1 85//1
f 88//1 105//1 87//1
f 89//1 106//1 88//1
f 90//1 107//1 89//1
f 91//1 108//1 90//1
f 92//1 109//1 91//1
f 93//1 110//1 92//1
f 95//1 111//1 93//1
f 112//1 113//1 95//1
f 97//1 114//1 96//1
f 98//1 115//1 97//1
f 99//1 116//1 98//1
f 100//1 117//1 99//1
f 101//1 118//1 100//1
f 102//1 119//1 101//1
f 103//1 120//1 102//1
f 104//1 121//1 103//1
f 106//1 123//1 105//1
f 107//1 124//1 106//1
f 108//1 125//1 107//1
f 109//1 126//1 108//1
f 110//1 127//1 109//1
f 111//1 128//1 110//1
f 113//1 129//1 111//1
f 130//1 131//1 113//1
f 115//1 132//1 114//1
f 116//1 133//1 115//1
f 117//1 134//1 116//1
f 118//1 135//1 117//1
f 119//1 136//1 118//1
f 120//1 137//1 119//1
f 121//1 138//1 120//1
f 122//1 139//1 121//1
f 124//1 141//1 123//1
f 125//1 142//1 124//1
f 126//1 143//1 125//1
f 127//1 144//1 126//1
f 128//1 145//1 127//1
f 129//1 146//1 128//1
f 131//1 147//1 129//1
f 148//1 149//1 131//1
f 133//1 150//1 132//1
f 134//1 151//1 133//1
f 135//1 152//1 134//1
f 136//1 153//1 135//1
f 137//1 154//1 136//1
f 138//1 155//1 137//1
f 139//1 156//1 138//1
f 140//1 157//1 139//1
f 142//1 159//1 141//1
f 143//1 160//1 142//1
f 144//1 161//1 143//1
f 145//1 162//1 144//1
f 146//1 163//1 145//1
f 147//1 164//1 146//1
f 149//1 165//1 147//1
f 166//1 167//1 149//1
f 151//1 168//1 150//1
f 152//1 169//1 151//1
f 153//1 170//1 152//1
f 154//1 171//1 153//1
f 155//1 172//1 154//1
f 156//1 173//1 155//1
f 157//1 174//1 156//1
f 158//1 175//1 157//1
f 160//1 177//1 159//1
f 161//1 178//1 160//1
f 162//1 179//1 161//1
f 163//1 180//1 162//1
f 164//1 181//1 163//1
f 165//1 182//1 164//1
f 167//1 183//1 165//1
f 184//1 185//1 167//1
f 169//1 186//1 168//1
f 170//1 187//1 169//1
f 171//1 188//1 170//1
f 172//1 189//1 171//1
f 173//1 190//1 172//1
f 174//1 191//1 173//1
f 175//1 192//1 174//1
f 176//1 193//1 175//1
f 178//1 195//1 177//1
f 179//1 196//1 178//1
f 180//1 197//1 179//1
f 181//1 198//1 180//1
f 182//1 199//1 181//1
f 183//1 200//1 182//1
f 185//1 201//1 183//1
f 202//1 203//1 185//1
f 187//1 204//1 186//1
f 188//1 205//1 187//1
f 189//1 206//1 188//1
f 190//1 207//1 189//1
f 191//1 208//1 190//1
f 192//1 209//1 191//1
f 193//1 210//1 192//1
f 194//1 211//1 193//1
f 196//1 213//1 195//1
f 197//1 214//1 196//1
f 198//1 215//1 197//1
f 199//1 216//1 198//1
f 200//1 217//1 199//1
f 201//1 218//1 200//1
f 203//1 219//1 201//1
f 220//1 221//1 203//1
f 205//1 222//1 204//1
f 206//1 223//1 205//1
f 207//1 224//1 206//1
f 208//1 225//1 207//1
f 209//1 226//1 208//1
f 210//1 227//1 209//1
f 211//1 228//1 210//1
f 212//1 229//1 211//1
f 214//1 231//1 213//1
f 215//1 232//1 214//1
f 216//1 233//1 215//1
f 217//1 234//1 216//1
f 218//1 235//1 217//1
f 219//1 236//1 218//1
f 221//1 237//1 219//1
f 238//1 239//1 221//1
f 223//1 240//1 222//1
f 224//1 241//1 223//1
f 225//1 242//1 224//1
f 226//1 243//1 225//1
f 227//1 244//1 226//1
f 228//1 245//1 227//1
f 229//1 246//1 228//1
f 230//1 247//1 229//1
f 232//1 249//1 231//1
f 233//1 250//1 232//1
f 234//1 251//1 233//1
f 235//1 252//1 234//1
f 236//1 253//1 235//1
f 237//1 254//1 236//1
f 239//1 255//1 237//1
f 256//1 257//1 239//1
f 241//1 258//1 240//1
f 242//1 259//1 241//1
f 243//1 260//1 242//1
f 244//1 261//1 243//1
f 245//1 262//1 244//1
f 246//1 263//1 245//1
f 247//1 264//1 246//1
f 248//1 265//1 247//1
f 250//1 267//1 249//1
f 251//1 268//1 250//1
f 252//1 269//1 251//1
f 253//1 270//1 252//1
f 254//1 271//1 253//1
f 255//1 272//1 254//1
f 257//1 273//1 255//1
f 274//1 275//1 257//1
f 259//1 276//1 258//1
f 260//1 277//1 259//1
f 261//1 278//1 260//1
f 262//1 279//1 261//1
f 263//1 280//1 262//1
f 264//1 281//1 263//1
f 265//1 282//1 264//1
f 266//1 283//1 265//1
f 268//1 285//1 267//1
f 269//1 286//1 268//1
f 270//1 287//1 269//1
f 271//1 288//1 270//1
f 272//1 289//1 271//1
f 273//1 290//1 272//1
f 275//1 291//1 273//1
f 292//1 293//1 275//1
f 277//1 294//1 276//1
f 278//1 295//1 277//1
f 279//1 296//1 278//1
f 280//1 297//1 279//1
f 281//1 298//1 280//1
f 282//1 299//1 281//1
f 283//1 300//1 282//1
f 284//1 301//1 283//1
f 286//1 303//1 285//1
f 287//1 304//1 286//1
f 288//1 305//1 287//1
f 289//1 306//1 288//1
f 290//1 307//1 289//1
f 291//1 308//1 290//1
f 293//1 309//1 291//1
f 310//1 311//1 293//1
f 295//1 312//1 294//1
f 296//1 313//1 295//1
f 297//1 314//1 296//1
f 298//1 315//1 297//1
f 299//1 316//1 298//1
f 300//1 317//1 299//1
f 301//1 318//1 300//1
f 302//1 319//1 301//1
f 304//1 323//1 303//1
f 305//1 324//1 304//1
f 306//1 325//1 305//1
f 307//1 326//1 306//1
f 308//1 327//1 307//1
f 309//1 328//1 308//1
f 311//1 329//1 309//1
f 330//1 331//1 311//1
f 313//1 332//1 312//1
f 314//1 333//1 313//1
f 315//1 334//1 314//1
f 316//1 335//1 315//1
f 317//1 336//1 316//1
f 318//1 337//1 317//1
f 319//1 338//1 318//1
f 320//1 339//1 319//1
f 321//1 340//1 320//1
f 322//1 341//1 321//1
f 323//1 342//1 322//1
f 324//1 343//1 323//1
f 325//1 344//1 324//1
f 326//1 345//1 325//1
f 327//1 346//1 326//1
f 328//1 347//1 327//1
f 329//1 348//1 328//1
f 331//1 349//1 329//1
f 350//1 351//1 331//1
f 333//1 352//1 332//1
f 334//1 353//1 333//1
f 335//1 354//1 334//1
f 336//1 355//1 335//1
f 337//1 356//1 336//1
f 338//1 357//1 337//1
f 339//1 358//1 338//1
f 340//1 359//1 339//1
f 341//1 360//1 340//1
f 342//1 361//1 341//1
f 343//1 362//1 342//1
f 344//1 363//1 343//1
f 345//1 364//1 344//1
f 346//1 365//1 345//1
f 347//1 366//1 346//1
f 348//1 367//1 347//1
f 349//1 368//1 348//1
f 351//1 369//1 349//1
f 370//1 371//1 351//1
f 1//1 5//1 2//1
f 4//1 7//1 5//1
f 6//1 9//1 7//1
f 8//1 11//1 9//1
f 10//1 13//1 11//1
f 12//1 15//1 13//1
f 14//1 17//1 15//1
f 16//1 19//1 17//1
f 18//1 21//1 19//1
f 20//1 23//1 21//1
f 22//1 25//1 23//1
f 24//1 27//1 25//1
f 26//1 29//1 27//1
f 28//1 31//1 29//1
f 30//1 33//1 31//1
f 32//1 35//1 33//1
f 34//1 37//1 35//1
f 36//1 39//1 37//1
f 38//1 58//1 39//1
f 5//1 41//1 40//1
f 7//1 42//1 41//1
f 9//1 43//1 42//1
f 11//1 44//1 43//1
f 13//1 45//1 44//1
f 15//1 46//1 45//1
f 17//1 47//1 46//1
f 19//1 48//1 47//1
f 21//1 49//1 48//1
f 23//1 50//1 49//1
f 25//1 51//1 50//1
f 27//1 52//1 51//1
f 29//1 53//1 52//1
f 31//1 54//1 53//1
f 33//1 55//1 54//1
f 35//1 56//1 55//1
f 37//1 57//1 56//1
f 39//1 59//1 57//1
f 58//1 76//1 59//1
f 41//1 61//1 60//1
f 42//1 62//1 61//1
f 43//1 63//1 62//1
f 44//1 64//1 63//1
f 45//1 65//1 64//1
f 46//1 66//1 65//1
f 47//1 67//1 66//1
f 48//1 68//1 67//1
f 52//1 70//1 69//1
f 53//1 71//1 70//1
f 54//1 72//1 71//1
f 55//1 73//1 72//1
f 56//1 74//1 73//1
f 57//1 75//1 74//1
f 59//1 77//1 75//1
f 76//1 94//1 77//1
f 61//1 79//1 78//1
f 62//1 80//1 79//1
f 63//1 81//1 80//1
f 64//1 82//1 81//1
f 65//1 83//1 82//1
f 66//1 84//1 83//1
f 67//1 85//1 84//1
f 68//1 86//1 85//1
f 70//1 88//1 87//1
f 71//1 89//1 88//1
f 72//1 90//1 89//1
f 73//1 91//1 90//1
f 74//1 92//1 91//1
f 75//1 93//1 92//1
f 77//1 95//1 93//1
f 94//1 112//1 95//1
f 79//1 97//1 96//1
f 80//1 98//1 97//1
f 81//1 99//1 98//1
f 82//1 100//1 99//1
f 83//1 101//1 100//1
f 84//1 102//1 101//1
f 85//1 103//1 102//1
f 86//1 104//1 103//1
f 88//1 106//1 105//1
f 89//1 107//1 106//1
f 90//1 108//1 107//1
f 91//1 109//1 108//1
f 92//1 110//1 109//1
f 93//1 111//1 110//1
f 95//1 113//1 111//1
f 112//1 130//1 113//1
f 97//1 115//1 114//1
f 98//1 116//1 115//1
f 99//1 117//1 116//1
f 100//1 118//1 117//1
f 101//1 119//1 118//1
f 102//1 120//1 119//1
f 103//1 121//1 120//1
f 104//1 122//1 121//1
f 106//1 124//1 123//1
f 107//1 125//1 124//1
f 108//1 126//1 125//1
f 109//1 127//1 126//1
f 110//1 128//1 127//1
f 111//1 129//1 128//1
f 113//1 131//1 129//1
f 130//1 148//1 131//1
f 115//1 133//1 132//1
f 116//1 134//1 133//1
f 117//1 135//1 134//1
f 118//1 136//1 135//1
f 119//1 137//1 136//1
f 120//1 138//1 137//1
f 121//1 139//1 138//1
f 122//1 140//1 139//1
f 124//1 142//1 141//1
f 125//1 143//1 142//1
f 126//1 144//1 143//1
f 127//1 145//1 144//1
f 128//1 146//1 145//1
f 129//1 147//1 146//1
f 131//1 149//1 147//1
f 148//1 166//1 149//1
f 133//1 151//1 150//1
f 134//1 152//1 151//1
f 135//1 153//1 152//1
f 136//1 154//1 153//1
f 137//1 155//1 154//1
f 138//1 156//1 155//1
f 139//1 157//1 156//1
f 140//1 158//1 157//1
f 142//1 160//1 159//1
f 143//1 161//1 160//1
f 144//1 162//1 161//1
f 145//1 163//1 162//1
f 146//1 164//1 163//1
f 147//1 165//1 164//1
f 149//1 167//1 165//1
f 166//1 184//1 167//1
f 151//1 169//1 168//1
f 152//1 170//1 169//1
f 153//1 171//1 170//1
f 154//1 172//1 171//1
f 155//1 173//1 172//1
f 156//1 174//1 173//1
f 157//1 175//1 174//1
f 158//1 176//1 175//1
f 160//1 178//1 177//1
f 161//1 179//1 178//1
f 162//1 180//1 179//1
f 163//1 181//1 180//1
f 164//1 182//1 181//1
f 165//1 183//1 182//1
f 167//1 185//1 183//1
f 184//1 202//1 185//1
f 169//1 187//1 186//1
f 170//1 188//1 187//1
f 171//1 189//1 188//1
f 172//1 190//1 189//1
f 173//1 191//1 190//1
f 174//1 192//1 191//1
f 175//1 193//1 192//1
f 176//1 194//1 193//1
f 178//1 196//1 195//1
f 179//1 197//1 196//1
f 180//1 198//1 197//1
f 181//1 199//1 198//1
f 182//1 200//1 199//1
f 183//1 201//1 200//1
f 185//1 203//1 201//1
f 202//1 220//1 203//1
f 187//1 205//1 204//1
f 188//1 206//1 205//1
f 189//1 207//1 206//1
f 190//1 208//1 207//1
f 191//1 209//1 208//1
f 192//1 210//1 209//1
f 193//1 211//1 210//1
f 194//1 212//1 211//1
f 196//1 214//1 213//1
f 197//1 215//1 214//1
f 198//1 216//1 215//1
f 199//1 217//1 216//1
f 200//1 218//1 217//1
f 201//1 219//1 218//1
f 203//1 221//1 219//1
f 220//1 238//1 221//1
f 205//1 223//1 222//1
f 206//1 224//1 223//1
f 207//1 225//1 224//1
f 208//1 226//1 225//1
f 209//1 227//1 226//1
f 210//1 228//1 227//1
f 211//1 229//1 228//1
f 212//1 230//1 229//1
f 214//1 232//1 231//1
f 215//1 233//1 232//1
f 216//1 234//1 233//1
f 217//1 235//1 234//1
f 218//1 236//1 235//1
f 219//1 237//1 236//1
f 221//1 239//1 237//1
f 238//1 256//1 239//1
f 223//1 241//1 240//1
f 224//1 242//1 241//1
f 225//1 243//1 242//1
f 226//1 244//1 243//1
f 227//1 245//1 244//1
f 228//1 246//1 245//1
f 229//1 247//1 246//1
f 230//1 248//1 247//1
f 232//1 250//1 249//1
f 233//1 251//1 250//1
f 234//1 252//1 251//1
f 235//1 253//1 252//1
f 236//1 254//1 253//1
f 237//1 255//1 254//1
f 239//1 257//1 255//1
f 256//1 274//1 257//1
f 241//1 259//1 258//1
f 242//1 260//1 259//1
f 243//1 261//1 260//1
f 244//1 262//1 261//1
f 245//1 263//1 262//1
f 246//1 264//1 263//1
f 247//1 265//1 264//1
f 248//1 266//1 265//1
f 250//1 268//1 267//1
f 251//1 269//1 268//1
f 252//1 270//1 269//1
f 253//1 271//1 270//1
f 254//1 272//1 271//1
f 255//1 273//1 272//1
f 257//1 275//1 273//1
f 274//1 292//1 275//1
f 259//1 277//1 276//1
f 260//1 278//1 277//1
f 261//1 279//1 278//1
f 262//1 280//1 279//1
f 263//1 281//1 280//1
f 264//1 282//1 281//1
f 265//1 283//1 282//1
f 266//1 284//1 283//1
f 268//1 286//1 285//1
f 269//1 287//1 286//1
f 270//1 288//1 287//1
f 271//1 289//1 288//1
f 272//1 290//1 289//1
f 273//1 291//1 290//1
f 275//1 293//1 291//1
f 292//1 310//1 293//1
f 277//1 295//1 294//1
f 278//1 296//1 295//1
f 279//1 297//1 296//1
f 280//1 298//1 297//1
f 281//1 299//1 298//1
f 282//1 300//1 299//1
f 283//1 301//1 300//1
f 284//1 302//1 301//1
f 286//1 304//1 303//1
f 287//1 305//1 304//1
f 288//1 306//1 305//1
f 289//1 307//1 306//1
f 290//1 308//1 307//1
f 291//1 309//1 308//1
f 293//1 311//1 309//1
f 310//1 330//1 311//1
f 295//1 313//1 312//1
f 296//1 314//1 313//1
f 297//1 315//1 314//1
f 298//1 316//1 315//1
f 299//1 317//1 316//1
f 300//1 318//1 317//1
f 301//1 319//1 318//1
f 302//1 320//1 319//1
f 304//1 324//1 323//1
f 305//1 325//1 324//1
f 306//1 326//1 325//1
f 307//1 327//1 326//1
f 308//1 328//1 327//1
f 309//1 329//1 328//1
f 311//1 331//1 329//1
f 330//1 350//1 331//1
f 313//1 333//1 332//1
f 314//1 334//1 333//1
f 315//1 335//1 334//1
f 316//1 336//1 335//1
f 317//1 337//1 336//1
f 318//1 338//1 337//1
f 319//1 339//1 338//1
f 320//1 340//1 339//1
f 321//1 341//1 340//1
f 322//1 342//1 341//1
f 323//1 343//1 342//1
f 324//1 344//1 343//1
f 325//1 345//1 344//1
f 326//1 346//1 345//1
f 327//1 347//1 346//1
f 328//1 348//1 347//1
f 329//1 349//1 348//1
f 331//1 351//1 349//1
f 350//1 370//1 351//1
f 333//1 353//1 352//1
f 334//1 354//1 353//1
f 335//1 355//1 354//1
f 336//1 356//1 355//1
f 337//1 357//1 356//1
f 338//1 358//1 357//1
f 339//1 359//1 358//1
f 340//1 360//1 359//1
f 341//1 361//1 360//1
f 342//1 362//1 361//1
f 343//1 363//1 362//1
f 344//1 364//1 363//1
f 345//1 365//1 364//1
f 346//1 366//1 365//1
f 347//1 367//1 366//1
f 348//1 368//1 367//1
f 349//1 369//1 368//1
f 351//1 371//1 369//1
f 370//1 372//1 371//1
