# Blender v2.92.0 OBJ File: ''
# www.blender.org
mtllib circle_128_triangles.mtl
o Circle
v 0.000000 0.000000 -2.000000
v -0.390181 0.000000 -1.961571
v -0.765367 0.000000 -1.847759
v -1.111140 0.000000 -1.662939
v -1.414214 0.000000 -1.414214
v -1.662939 0.000000 -1.111140
v -1.847759 0.000000 -0.765367
v -1.961571 0.000000 -0.390181
v -2.000000 0.000000 -0.000000
v -1.961571 0.000000 0.390180
v -1.847759 0.000000 0.765367
v -1.662939 0.000000 1.111140
v -1.414214 0.000000 1.414214
v -1.111140 0.000000 1.662939
v -0.765367 0.000000 1.847759
v -0.390180 0.000000 1.961571
v 0.000001 0.000000 2.000000
v 0.390181 0.000000 1.961570
v 0.765368 0.000000 1.847759
v 1.111141 0.000000 1.662939
v 1.414214 0.000000 1.414213
v 1.662940 0.000000 1.111139
v 1.847760 0.000000 0.765365
v 1.961571 0.000000 0.390179
v 2.000000 0.000000 -0.000002
v 1.961570 0.000000 -0.390183
v 1.847758 0.000000 -0.765369
v 1.662938 0.000000 -1.111143
v 1.414212 0.000000 -1.414215
v 1.111138 0.000000 -1.662941
v 0.765364 0.000000 -1.847760
v 0.390178 0.000000 -1.961571
v 1.021889 0.000000 -1.559827
v 0.591316 0.000000 -1.640368
v 0.139042 0.000000 -1.652741
v -0.317558 0.000000 -1.596473
v -0.760934 0.000000 -1.473725
v -1.174048 0.000000 -1.289214
v -1.541024 0.000000 -1.050030
v 1.242862 0.000000 -1.193255
v 0.776213 0.000000 -1.223537
v 0.280925 0.000000 -1.200825
v -0.223973 0.000000 -1.125991
v -0.719075 0.000000 -1.001912
v -1.185355 0.000000 -0.833356
v -1.604895 0.000000 -0.626799
v 1.418635 0.000000 -0.767948
v 0.935745 0.000000 -0.737239
v 0.417649 0.000000 -0.674421
v -0.115748 0.000000 -0.581908
v -0.643946 0.000000 -0.463257
v -1.146645 0.000000 -0.323025
v -1.604529 0.000000 -0.166602
v 1.541195 0.000000 -0.306565
v 1.061593 0.000000 -0.211166
v 0.541197 0.000000 -0.107652
v 0.000001 0.000000 -0.000001
v -0.541196 0.000000 0.107650
v -1.061594 0.000000 0.211164
v -1.541196 0.000000 0.306563
v 1.604529 0.000000 0.166600
v 1.146645 0.000000 0.323023
v 0.643947 0.000000 0.463255
v 0.115750 0.000000 0.581907
v -0.417648 0.000000 0.674419
v -0.935746 0.000000 0.737237
v -1.418636 0.000000 0.767946
v 1.604895 0.000000 0.626798
v 1.185356 0.000000 0.833354
v 0.719077 0.000000 1.001911
v 0.223974 0.000000 1.125990
v -0.280924 0.000000 1.200824
v -0.776214 0.000000 1.223536
v -1.242864 0.000000 1.193253
v 1.541025 0.000000 1.050029
v 1.174049 0.000000 1.289213
v 0.760936 0.000000 1.473724
v 0.317559 0.000000 1.596472
v -0.139041 0.000000 1.652741
v -0.591318 0.000000 1.640367
v -1.021891 0.000000 1.559826
vt 0.000000 0.000000
vt 0.000000 0.000000
vt 0.000000 0.000000
vt 0.000000 0.000000
vt 0.000000 0.000000
vt 0.000000 0.000000
vt 0.000000 0.000000
vt 0.000000 0.000000
vt 0.000000 0.000000
vt 0.000000 0.000000
vt 0.000000 0.000000
vt 0.000000 0.000000
vt 0.000000 0.000000
vt 0.000000 0.000000
vt 0.000000 0.000000
vt 0.000000 0.000000
vt 0.000000 0.000000
vt 0.000000 0.000000
vt 0.000000 0.000000
vt 0.000000 0.000000
vt 0.000000 0.000000
vt 0.000000 0.000000
vt 0.000000 0.000000
vt 0.000000 0.000000
vt 0.000000 0.000000
vt 0.000000 0.000000
vt 0.000000 0.000000
vt 0.000000 0.000000
vt 0.000000 0.000000
vt 0.000000 0.000000
vt 0.000000 0.000000
vt 0.000000 0.000000
vt 0.000000 0.000000
vt 0.000000 0.000000
vt 0.000000 0.000000
vt 0.000000 0.000000
vt 0.000000 0.000000
vt 0.000000 0.000000
vt 0.000000 0.000000
vt 0.000000 0.000000
vt 0.000000 0.000000
vt 0.000000 0.000000
vt 0.000000 0.000000
vt 0.000000 0.000000
vt 0.000000 0.000000
vt 0.000000 0.000000
vt 0.000000 0.000000
vt 0.000000 0.000000
vt 0.000000 0.000000
vt 0.000000 0.000000
vt 0.000000 0.000000
vt 0.000000 0.000000
vt 0.000000 0.000000
vt 0.000000 0.000000
vt 0.000000 0.000000
vt 0.000000 0.000000
vt 0.000000 0.000000
vt 0.000000 0.000000
vt 0.000000 0.000000
vt 0.000000 0.000000
vt 0.000000 0.000000
vt 0.000000 0.000000
vt 0.000000 0.000000
vt 0.000000 0.000000
vt 0.000000 0.000000
vt 0.000000 0.000000
vt 0.000000 0.000000
vt 0.000000 0.000000
vt 0.000000 0.000000
vt 0.000000 0.000000
vt 0.000000 0.000000
vt 0.000000 0.000000
vt 0.000000 0.000000
vt 0.000000 0.000000
vt 0.000000 0.000000
vt 0.000000 0.000000
vt 0.000000 0.000000
vt 0.000000 0.000000
vt 0.000000 0.000000
vt 0.000000 0.000000
vt 0.000000 0.000000
vn 0.0000 1.0000 0.0000
usemtl None
s off
f 33/1/1 30/2/1 31/3/1
f 40/4/1 29/5/1 33/1/1
f 47/6/1 28/7/1 40/4/1
f 54/8/1 27/9/1 47/6/1
f 54/8/1 25/10/1 26/11/1
f 61/12/1 24/13/1 25/10/1
f 68/14/1 23/15/1 24/13/1
f 75/16/1 22/17/1 23/15/1
f 34/18/1 31/3/1 32/19/1
f 41/20/1 33/1/1 34/18/1
f 48/21/1 40/4/1 41/20/1
f 55/22/1 47/6/1 48/21/1
f 55/22/1 61/12/1 54/8/1
f 62/23/1 68/14/1 61/12/1
f 69/24/1 75/16/1 68/14/1
f 76/25/1 21/26/1 75/16/1
f 35/27/1 32/19/1 1/28/1
f 42/29/1 34/18/1 35/27/1
f 49/30/1 41/20/1 42/29/1
f 56/31/1 48/21/1 49/30/1
f 56/31/1 62/23/1 55/22/1
f 63/32/1 69/24/1 62/23/1
f 70/33/1 76/25/1 69/24/1
f 77/34/1 20/35/1 76/25/1
f 36/36/1 1/28/1 2/37/1
f 43/38/1 35/27/1 36/36/1
f 50/39/1 42/29/1 43/38/1
f 57/40/1 49/30/1 50/39/1
f 57/40/1 63/32/1 56/31/1
f 64/41/1 70/33/1 63/32/1
f 71/42/1 77/34/1 70/33/1
f 78/43/1 19/44/1 77/34/1
f 3/45/1 36/36/1 2/37/1
f 37/46/1 43/38/1 36/36/1
f 44/47/1 50/39/1 43/38/1
f 51/48/1 57/40/1 50/39/1
f 65/49/1 57/40/1 58/50/1
f 72/51/1 64/41/1 65/49/1
f 79/52/1 71/42/1 72/51/1
f 17/53/1 78/43/1 79/52/1
f 4/54/1 37/46/1 3/45/1
f 38/55/1 44/47/1 37/46/1
f 45/56/1 51/48/1 44/47/1
f 52/57/1 58/50/1 51/48/1
f 66/58/1 58/50/1 59/59/1
f 73/60/1 65/49/1 66/58/1
f 80/61/1 72/51/1 73/60/1
f 16/62/1 79/52/1 80/61/1
f 5/63/1 38/55/1 4/54/1
f 39/64/1 45/56/1 38/55/1
f 46/65/1 52/57/1 45/56/1
f 53/66/1 59/59/1 52/57/1
f 67/67/1 59/59/1 60/68/1
f 74/69/1 66/58/1 67/67/1
f 81/70/1 73/60/1 74/69/1
f 15/71/1 80/61/1 81/70/1
f 6/72/1 39/64/1 5/63/1
f 7/73/1 46/65/1 39/64/1
f 8/74/1 53/66/1 46/65/1
f 9/75/1 60/68/1 53/66/1
f 11/76/1 60/68/1 10/77/1
f 12/78/1 67/67/1 11/76/1
f 13/79/1 74/69/1 12/78/1
f 14/80/1 81/70/1 13/79/1
f 33/1/1 29/5/1 30/2/1
f 40/4/1 28/7/1 29/5/1
f 47/6/1 27/9/1 28/7/1
f 54/8/1 26/11/1 27/9/1
f 54/8/1 61/12/1 25/10/1
f 61/12/1 68/14/1 24/13/1
f 68/14/1 75/16/1 23/15/1
f 75/16/1 21/26/1 22/17/1
f 34/18/1 33/1/1 31/3/1
f 41/20/1 40/4/1 33/1/1
f 48/21/1 47/6/1 40/4/1
f 55/22/1 54/8/1 47/6/1
f 55/22/1 62/23/1 61/12/1
f 62/23/1 69/24/1 68/14/1
f 69/24/1 76/25/1 75/16/1
f 76/25/1 20/35/1 21/26/1
f 35/27/1 34/18/1 32/19/1
f 42/29/1 41/20/1 34/18/1
f 49/30/1 48/21/1 41/20/1
f 56/31/1 55/22/1 48/21/1
f 56/31/1 63/32/1 62/23/1
f 63/32/1 70/33/1 69/24/1
f 70/33/1 77/34/1 76/25/1
f 77/34/1 19/44/1 20/35/1
f 36/36/1 35/27/1 1/28/1
f 43/38/1 42/29/1 35/27/1
f 50/39/1 49/30/1 42/29/1
f 57/40/1 56/31/1 49/30/1
f 57/40/1 64/41/1 63/32/1
f 64/41/1 71/42/1 70/33/1
f 71/42/1 78/43/1 77/34/1
f 78/43/1 18/81/1 19/44/1
f 3/45/1 37/46/1 36/36/1
f 37/46/1 44/47/1 43/38/1
f 44/47/1 51/48/1 50/39/1
f 51/48/1 58/50/1 57/40/1
f 65/49/1 64/41/1 57/40/1
f 72/51/1 71/42/1 64/41/1
f 79/52/1 78/43/1 71/42/1
f 17/53/1 18/81/1 78/43/1
f 4/54/1 38/55/1 37/46/1
f 38/55/1 45/56/1 44/47/1
f 45/56/1 52/57/1 51/48/1
f 52/57/1 59/59/1 58/50/1
f 66/58/1 65/49/1 58/50/1
f 73/60/1 72/51/1 65/49/1
f 80/61/1 79/52/1 72/51/1
f 16/62/1 17/53/1 79/52/1
f 5/63/1 39/64/1 38/55/1
f 39/64/1 46/65/1 45/56/1
f 46/65/1 53/66/1 52/57/1
f 53/66/1 60/68/1 59/59/1
f 67/67/1 66/58/1 59/59/1
f 74/69/1 73/60/1 66/58/1
f 81/70/1 80/61/1 73/60/1
f 15/71/1 16/62/1 80/61/1
f 6/72/1 7/73/1 39/64/1
f 7/73/1 8/74/1 46/65/1
f 8/74/1 9/75/1 53/66/1
f 9/75/1 10/77/1 60/68/1
f 11/76/1 67/67/1 60/68/1
f 12/78/1 74/69/1 67/67/1
f 13/79/1 81/70/1 74/69/1
f 14/80/1 15/71/1 81/70/1
