# Blender v2.92.0 OBJ File: ''
# www.blender.org
mtllib plane_128_triangles.mtl
o Plane_Plane.001
v 2.000000 0.000000 -1.500000
v 1.500000 0.000000 -2.000000
v 1.500000 0.000000 -1.500000
v 0.000000 0.000000 -1.500000
v -0.500000 0.000000 -2.000000
v -0.500000 0.000000 -1.500000
v 0.000000 -0.000000 0.500000
v -0.500000 0.000000 0.000000
v -0.500000 -0.000000 0.500000
v 2.000000 -0.000000 0.500000
v 1.500000 0.000000 0.000000
v 1.500000 -0.000000 0.500000
v 1.000000 -0.000000 0.500000
v 0.500000 0.000000 0.000000
v 0.500000 -0.000000 0.500000
v 1.000000 -0.000000 1.500000
v 0.500000 -0.000000 1.000000
v 0.500000 -0.000000 1.500000
v 2.000000 -0.000000 1.500000
v 1.500000 -0.000000 1.000000
v 1.500000 -0.000000 1.500000
v -1.000000 -0.000000 0.500000
v -1.500000 0.000000 0.000000
v -1.500000 -0.000000 0.500000
v -1.000000 -0.000000 1.500000
v -1.500000 -0.000000 1.000000
v -1.500000 -0.000000 1.500000
v 0.000000 -0.000000 1.500000
v -0.500000 -0.000000 1.000000
v -0.500000 -0.000000 1.500000
v -1.000000 0.000000 -1.500000
v -1.500000 0.000000 -2.000000
v -1.500000 0.000000 -1.500000
v -1.000000 0.000000 -0.500000
v -1.500000 0.000000 -1.000000
v -1.500000 0.000000 -0.500000
v 0.000000 0.000000 -0.500000
v -0.500000 0.000000 -1.000000
v -0.500000 0.000000 -0.500000
v 1.000000 0.000000 -1.500000
v 0.500000 0.000000 -2.000000
v 0.500000 0.000000 -1.500000
v 1.000000 0.000000 -0.500000
v 0.500000 0.000000 -1.000000
v 0.500000 0.000000 -0.500000
v 2.000000 0.000000 -0.500000
v 1.500000 0.000000 -1.000000
v 1.500000 0.000000 -0.500000
v 1.000000 0.000000 -1.000000
v 1.000000 0.000000 0.000000
v 2.000000 0.000000 0.000000
v 0.000000 0.000000 -1.000000
v 0.000000 0.000000 0.000000
v 0.000000 0.000000 -2.000000
v -1.000000 0.000000 -1.000000
v -1.000000 0.000000 0.000000
v -2.000000 0.000000 -1.000000
v -2.000000 0.000000 -0.500000
v -2.000000 0.000000 0.000000
v -2.000000 0.000000 -2.000000
v -2.000000 0.000000 -1.500000
v -1.000000 -0.000000 1.000000
v -0.500000 -0.000000 2.000000
v -1.000000 -0.000000 2.000000
v 0.000000 -0.000000 2.000000
v -2.000000 -0.000000 1.000000
v -2.000000 -0.000000 1.500000
v -1.500000 -0.000000 2.000000
v -2.000000 -0.000000 2.000000
v -2.000000 -0.000000 0.500000
v 1.000000 -0.000000 1.000000
v 1.500000 -0.000000 2.000000
v 1.000000 -0.000000 2.000000
v 2.000000 -0.000000 2.000000
v 0.000000 -0.000000 1.000000
v 0.500000 -0.000000 2.000000
v 2.000000 -0.000000 1.000000
v -1.000000 0.000000 -2.000000
v 1.000000 0.000000 -2.000000
v 2.000000 0.000000 -1.000000
v 2.000000 0.000000 -2.000000
vt 0.984360 0.839920
vt 0.863299 0.953117
vt 0.863299 0.839920
vt 0.500116 0.839920
vt 0.379055 0.953117
vt 0.379055 0.839920
vt 0.500116 0.387135
vt 0.379055 0.500331
vt 0.379055 0.387135
vt 0.984360 0.387135
vt 0.863299 0.500331
vt 0.863299 0.387135
vt 0.742238 0.387135
vt 0.621177 0.500331
vt 0.621177 0.387135
vt 0.742238 0.160742
vt 0.621177 0.273939
vt 0.621177 0.160742
vt 0.984360 0.160742
vt 0.863299 0.273939
vt 0.863299 0.160742
vt 0.257994 0.387135
vt 0.136933 0.500331
vt 0.136933 0.387135
vt 0.257994 0.160742
vt 0.136933 0.273939
vt 0.136933 0.160742
vt 0.500116 0.160742
vt 0.379055 0.273939
vt 0.379055 0.160742
vt 0.257994 0.839920
vt 0.136933 0.953117
vt 0.136933 0.839920
vt 0.257994 0.613528
vt 0.136933 0.726724
vt 0.136933 0.613528
vt 0.500116 0.613528
vt 0.379055 0.726724
vt 0.379055 0.613528
vt 0.742238 0.839920
vt 0.621177 0.953117
vt 0.621177 0.839920
vt 0.742238 0.613528
vt 0.621177 0.726724
vt 0.621177 0.613528
vt 0.984360 0.613528
vt 0.863299 0.726724
vt 0.863299 0.613528
vt 0.742238 0.726724
vt 0.742238 0.500331
vt 0.984360 0.500331
vt 0.500116 0.726724
vt 0.500116 0.500331
vt 0.500116 0.953117
vt 0.257994 0.726724
vt 0.257994 0.500331
vt 0.015872 0.726724
vt 0.015872 0.613528
vt 0.015872 0.500331
vt 0.015872 0.953117
vt 0.015872 0.839920
vt 0.257994 0.273939
vt 0.379055 0.047546
vt 0.257994 0.047546
vt 0.500116 0.047546
vt 0.015872 0.273939
vt 0.015872 0.160742
vt 0.136933 0.047546
vt 0.015872 0.047546
vt 0.015872 0.387135
vt 0.742238 0.273939
vt 0.863299 0.047546
vt 0.742238 0.047546
vt 0.984360 0.047546
vt 0.500116 0.273939
vt 0.621177 0.047546
vt 0.984360 0.273939
vt 0.257994 0.953117
vt 0.742238 0.953117
vt 0.984360 0.726724
vt 0.984360 0.953117
vn 0.0000 1.0000 0.0000
usemtl None
s 1
f 1/1/1 2/2/1 3/3/1
f 4/4/1 5/5/1 6/6/1
f 7/7/1 8/8/1 9/9/1
f 10/10/1 11/11/1 12/12/1
f 13/13/1 14/14/1 15/15/1
f 16/16/1 17/17/1 18/18/1
f 19/19/1 20/20/1 21/21/1
f 22/22/1 23/23/1 24/24/1
f 25/25/1 26/26/1 27/27/1
f 28/28/1 29/29/1 30/30/1
f 31/31/1 32/32/1 33/33/1
f 34/34/1 35/35/1 36/36/1
f 37/37/1 38/38/1 39/39/1
f 40/40/1 41/41/1 42/42/1
f 43/43/1 44/44/1 45/45/1
f 46/46/1 47/47/1 48/48/1
f 48/48/1 49/49/1 43/43/1
f 11/11/1 43/43/1 50/50/1
f 51/51/1 48/48/1 11/11/1
f 45/45/1 52/52/1 37/37/1
f 14/14/1 37/37/1 53/53/1
f 50/50/1 45/45/1 14/14/1
f 42/42/1 54/54/1 4/4/1
f 44/44/1 4/4/1 52/52/1
f 49/49/1 42/42/1 44/44/1
f 39/39/1 55/55/1 34/34/1
f 8/8/1 34/34/1 56/56/1
f 53/53/1 39/39/1 8/8/1
f 36/36/1 57/57/1 58/58/1
f 23/23/1 58/58/1 59/59/1
f 56/56/1 36/36/1 23/23/1
f 33/33/1 60/60/1 61/61/1
f 35/35/1 61/61/1 57/57/1
f 55/55/1 33/33/1 35/35/1
f 30/30/1 62/62/1 25/25/1
f 63/63/1 25/25/1 64/64/1
f 65/65/1 30/30/1 63/63/1
f 27/27/1 66/66/1 67/67/1
f 68/68/1 67/67/1 69/69/1
f 64/64/1 27/27/1 68/68/1
f 24/24/1 59/59/1 70/70/1
f 26/26/1 70/70/1 66/66/1
f 62/62/1 24/24/1 26/26/1
f 21/21/1 71/71/1 16/16/1
f 72/72/1 16/16/1 73/73/1
f 74/74/1 21/21/1 72/72/1
f 18/18/1 75/75/1 28/28/1
f 76/76/1 28/28/1 65/65/1
f 73/73/1 18/18/1 76/76/1
f 15/15/1 53/53/1 7/7/1
f 17/17/1 7/7/1 75/75/1
f 71/71/1 15/15/1 17/17/1
f 12/12/1 50/50/1 13/13/1
f 20/20/1 13/13/1 71/71/1
f 77/77/1 12/12/1 20/20/1
f 9/9/1 56/56/1 22/22/1
f 29/29/1 22/22/1 62/62/1
f 75/75/1 9/9/1 29/29/1
f 6/6/1 78/78/1 31/31/1
f 38/38/1 31/31/1 55/55/1
f 52/52/1 6/6/1 38/38/1
f 3/3/1 79/79/1 40/40/1
f 47/47/1 40/40/1 49/49/1
f 80/80/1 3/3/1 47/47/1
f 1/1/1 81/81/1 2/2/1
f 4/4/1 54/54/1 5/5/1
f 7/7/1 53/53/1 8/8/1
f 10/10/1 51/51/1 11/11/1
f 13/13/1 50/50/1 14/14/1
f 16/16/1 71/71/1 17/17/1
f 19/19/1 77/77/1 20/20/1
f 22/22/1 56/56/1 23/23/1
f 25/25/1 62/62/1 26/26/1
f 28/28/1 75/75/1 29/29/1
f 31/31/1 78/78/1 32/32/1
f 34/34/1 55/55/1 35/35/1
f 37/37/1 52/52/1 38/38/1
f 40/40/1 79/79/1 41/41/1
f 43/43/1 49/49/1 44/44/1
f 46/46/1 80/80/1 47/47/1
f 48/48/1 47/47/1 49/49/1
f 11/11/1 48/48/1 43/43/1
f 51/51/1 46/46/1 48/48/1
f 45/45/1 44/44/1 52/52/1
f 14/14/1 45/45/1 37/37/1
f 50/50/1 43/43/1 45/45/1
f 42/42/1 41/41/1 54/54/1
f 44/44/1 42/42/1 4/4/1
f 49/49/1 40/40/1 42/42/1
f 39/39/1 38/38/1 55/55/1
f 8/8/1 39/39/1 34/34/1
f 53/53/1 37/37/1 39/39/1
f 36/36/1 35/35/1 57/57/1
f 23/23/1 36/36/1 58/58/1
f 56/56/1 34/34/1 36/36/1
f 33/33/1 32/32/1 60/60/1
f 35/35/1 33/33/1 61/61/1
f 55/55/1 31/31/1 33/33/1
f 30/30/1 29/29/1 62/62/1
f 63/63/1 30/30/1 25/25/1
f 65/65/1 28/28/1 30/30/1
f 27/27/1 26/26/1 66/66/1
f 68/68/1 27/27/1 67/67/1
f 64/64/1 25/25/1 27/27/1
f 24/24/1 23/23/1 59/59/1
f 26/26/1 24/24/1 70/70/1
f 62/62/1 22/22/1 24/24/1
f 21/21/1 20/20/1 71/71/1
f 72/72/1 21/21/1 16/16/1
f 74/74/1 19/19/1 21/21/1
f 18/18/1 17/17/1 75/75/1
f 76/76/1 18/18/1 28/28/1
f 73/73/1 16/16/1 18/18/1
f 15/15/1 14/14/1 53/53/1
f 17/17/1 15/15/1 7/7/1
f 71/71/1 13/13/1 15/15/1
f 12/12/1 11/11/1 50/50/1
f 20/20/1 12/12/1 13/13/1
f 77/77/1 10/10/1 12/12/1
f 9/9/1 8/8/1 56/56/1
f 29/29/1 9/9/1 22/22/1
f 75/75/1 7/7/1 9/9/1
f 6/6/1 5/5/1 78/78/1
f 38/38/1 6/6/1 31/31/1
f 52/52/1 4/4/1 6/6/1
f 3/3/1 2/2/1 79/79/1
f 47/47/1 3/3/1 40/40/1
f 80/80/1 1/1/1 3/3/1
